<svg id="Layer_1" xmlns="http://www.w3.org/2000/svg" viewBox="0 0 2500 2500"><style>.st0{fill:#f7931a}.st1{fill:#fff}</style><path class="st0" d="M2462.5 1552.4c-167 669.6-845.2 1077.1-1515 910.2-669.4-167-1077-845.2-910-1514.8C204.4 278 882.7-129.6 1552.2 37.4c669.7 166.9 1077.2 845.3 910.3 1515z"/><path class="st1" d="M1801.2 1071.9c24.8-166.3-101.8-255.7-275-315.4l56.2-225.3-137.2-34.2-54.7 219.4c-36-9-73-17.5-109.8-25.9l55.1-220.8-137.1-34.2-56.2 225.2c-29.8-6.8-59.1-13.5-87.6-20.6l.2-.7L866 592.2l-36.5 146.5s101.8 23.3 99.6 24.8c55.5 13.9 65.6 50.6 63.9 79.8L929 1100c3.8 1 8.8 2.4 14.3 4.6l-14.5-3.6-89.8 359.5c-6.8 16.9-24 42.2-62.9 32.6 1.4 2-99.7-24.9-99.7-24.9l-68.1 157 178.5 44.5c33.2 8.3 65.7 17 97.7 25.2l-56.8 227.9 137 34.2 56.3-225.5c37.4 10.2 73.7 19.5 109.3 28.4l-56 224.4 137.1 34.2 56.8-227.5c233.9 44.3 409.8 26.4 483.7-185.1 59.6-170.3-2.9-268.6-126-332.7 89.7-20.6 157.2-79.5 175.3-201.3zm-313.4 439.4c-42.4 170.3-329.1 78.3-422.1 55.2l75.3-301.9c92.9 23.2 391 69.1 346.8 246.7zm42.3-441.8c-38.7 154.9-277.3 76.2-354.8 56.9l68.3-273.8c77.5 19.2 326.9 55.3 286.5 216.9z"/></svg>
